<?xml version="1.0" encoding="UTF-8"?>
<svg id="uuid-3af0e431-479f-4c96-bac8-075fa7c664ab" xmlns="http://www.w3.org/2000/svg" viewBox="0 0 214.93 214.99">
    <g id="uuid-9cab7204-692c-489b-aa09-73094c3b2dd8">
        <path d="m214.93,107.48c.27,58.97-48.13,107.24-106.87,107.51C48.45,215.26-.04,166.55,0,107.43.04,48.26,48.68-.43,108.36,0c58.53.43,106.82,48.58,106.57,107.48Zm-107.55,100.44c11.54.09,22.72-1.86,33.57-5.71,12.9-4.57,24.37-11.53,34.49-20.77,1.39-1.27,1.5-2.23.82-3.83-3.12-7.36-7.19-14.14-12.6-20.01-16.77-18.16-37.56-25.89-62.07-23-15.76,1.86-29.27,8.81-40.54,19.95-8.09,8-13.81,17.52-17.35,28.36-.41,1.25-.19,2,.85,2.83,18.4,14.63,39.34,21.99,62.82,22.19Zm-36.82-117.87c-.46,19.76,16.12,37.04,36.87,37.05,20,.01,37.23-15.89,37.13-37.22-.09-21.05-17.1-36.88-36.98-36.87-20.67.01-37.02,16.36-37.03,37.05Z" fill="#fff" />
    </g>
</svg>