<?xml version="1.0" encoding="UTF-8"?>
<svg id="uuid-0c947388-eb07-4a27-9989-34d71f843e61" xmlns="http://www.w3.org/2000/svg" viewBox="0 0 219.93 220.01">
    <g id="uuid-cf5d4941-b311-4860-ba98-605811a50c91">
        <g>
            <path d="m0,110.07C-.34,50.38,48.35-.01,110.01,0c61.31.01,110.25,50.28,109.92,110.55-.33,59.7-48.61,109.4-110,109.46C49.06,220.07-.32,170.46,0,110.07Zm12.02-.08c.06,2.78.11,5.54.34,8.31.76,9.17,2.75,18.06,6.06,26.63,5.7,14.78,14.44,27.48,26.25,38.06,1.39,1.25,1.44,1.27,2.14-.58,4.1-10.87,10.32-20.32,19.04-28.02,17.03-15.04,36.96-21.08,59.28-17.24,24.64,4.23,42.28,18.27,52.98,40.9.56,1.19.96,1.41,1.94.37,7.58-8.04,13.89-16.91,18.58-26.96,8.03-17.23,10.9-35.29,8.4-54.07-3.49-26.26-15.75-47.81-36.48-64.2-21.91-17.32-47.04-23.96-74.68-20.08-23.8,3.34-43.73,14.37-59.56,32.4-16.13,18.38-24.09,40-24.28,64.46Z"/>
            <path d="m72.51,92.66c-.01-20.77,16.72-37.52,37.48-37.53,20.57-.01,37.4,16.86,37.39,37.49,0,20.56-16.9,37.39-37.52,37.37-20.55-.01-37.34-16.79-37.35-37.33Z"/>
        </g>
    </g>
</svg>